<svg width="634" height="634" xmlns="http://www.w3.org/2000/svg" xmlns:xlink="http://www.w3.org/1999/xlink" xml:space="preserve" overflow="hidden"><defs><clipPath id="clip0"><rect x="2054" y="-844" width="634" height="634"/></clipPath><linearGradient x1="2371" y1="-844" x2="2371" y2="-210" gradientUnits="userSpaceOnUse" spreadMethod="reflect" id="fill1"><stop offset="0" stop-color="#B19BFF"/><stop offset="0.58" stop-color="#6584FF"/><stop offset="1" stop-color="#362CFF"/></linearGradient></defs><g clip-path="url(#clip0)" transform="translate(-2054 844)"><path d="M2054-527C2054-702.074 2195.93-844 2371-844 2546.07-844 2688-702.074 2688-527 2688-351.926 2546.07-210 2371-210 2195.93-210 2054-351.926 2054-527Z" fill="url(#fill1)" fill-rule="evenodd"/><path d="M2203.85-675C2218.42-675 2230.47-670.859 2240.01-662.576 2249.55-654.294 2254.55-641.747 2255.02-624.935 2255.48-608.123 2250.48-579.196 2240-538.155 2224.21-477.088 2216.38-434.192 2216.51-409.469 2216.64-384.745 2220.76-367.253 2228.89-356.993 2237.01-346.732 2250.11-339.501 2268.2-335.298L2379.98-664.616 2420.36-664.616 2308.57-335.298C2328.85-339.007 2346.51-345.929 2361.55-356.066 2376.6-366.202 2392.56-383.385 2409.43-407.614 2426.3-431.843 2448.15-475.481 2474.98-538.526 2497.38-590.693 2517.68-626.48 2535.87-645.888 2554.07-665.296 2576.87-675 2604.28-675 2613.67-675 2626.91-672.898 2644-668.695L2639.85-656.458C2629.23-656.458 2620.7-654.603 2614.25-650.895 2605.24-645.455 2596.25-636.06 2587.28-622.71 2578.3-609.359 2565.87-584.759 2550-548.91 2524.68-491.057 2502.31-449.15 2482.88-423.19 2468.51-404.153 2450.43-386.167 2428.63-369.231 2406.82-352.295 2385.89-339.563 2365.83-331.033 2345.78-322.504 2324.34-317.002 2301.52-314.53L2271.47-226 2247.72-234.703 2236.18-240.975 2261.15-314.53C2228.99-318.733 2203.57-330.415 2184.88-349.576 2166.2-368.737 2155.67-393.028 2153.31-422.449 2151.48-444.7 2157.73-487.101 2172.05-549.651 2180.6-587.231 2184.97-612.449 2185.13-625.306 2185.3-638.162 2182.72-646.939 2177.4-651.636 2174.05-654.85 2166.57-656.458 2154.96-656.458L2159.11-668.695C2181.28-672.898 2196.2-675 2203.85-675Z" fill="#FFFFFF" fill-rule="evenodd"/></g></svg>
